<svg aria-label="전체 업무 흐름도 BPMN" height="1200" role="img" viewbox="0 0 1120 1200" width="1120" xmlns="http://www.w3.org/2000/svg">
<defs>
<marker id="bpmn-arrow" markerheight="10" markerwidth="10" orient="auto" refx="9" refy="5" viewbox="0 0 10 10">
<path d="M0,0 L10,5 L0,10 z" fill="#667085"></path>
</marker>
<style>
  .pool{fill:#fff;stroke:#cfd8e3;stroke-width:1.4;}
  .pool-head{fill:#eef3f8;stroke:#cfd8e3;stroke-width:1.4;}
  .pool-title{font:700 14px Arial, 'Malgun Gothic', sans-serif;fill:#1f2937;}
  .pool-sub{font:12px Arial, 'Malgun Gothic', sans-serif;fill:#667085;}
  .task{fill:#f8fafc;stroke:#94a3b8;stroke-width:1.3;}
  .task-key{fill:#eef5ff;stroke:#6f8fb8;stroke-width:1.5;}
  .task-warn{fill:#fff7ed;stroke:#d29b72;stroke-width:1.5;}
  .task-text{font:700 12px Arial, 'Malgun Gothic', sans-serif;fill:#111827;}
  .task-id{font:10px 'Courier New', monospace;fill:#667085;}
  .event-start{fill:#fff;stroke:#64748b;stroke-width:1.6;}
  .event-end-outer{fill:#fff;stroke:#334155;stroke-width:1.6;}
  .event-end-inner{fill:none;stroke:#334155;stroke-width:1.6;}
  .gateway{fill:#fff;stroke:#7c8aa5;stroke-width:1.4;}
  .gateway-mark{font:700 16px Arial, 'Malgun Gothic', sans-serif;fill:#475569;}
  .flow{stroke:#667085;stroke-width:1.6;fill:none;marker-end:url(#bpmn-arrow);}
  .label{font:12px Arial, 'Malgun Gothic', sans-serif;fill:#475467;}
  .title{font:700 15px Arial, 'Malgun Gothic', sans-serif;fill:#111827;}
</style>
</defs>
<text class="title" text-anchor="middle" x="560" y="28">NC 회원 생애주기 전체 업무 흐름도 (BPMN 2.0 표기)</text>
<!-- Pool 1 -->
<rect class="pool" height="240" rx="12" width="1040" x="40" y="50"></rect>
<rect class="pool-head" height="240" rx="12" width="150" x="40" y="50"></rect>
<text class="pool-title" text-anchor="middle" x="115" y="118">회원 가입</text>
<text class="pool-sub" text-anchor="middle" x="115" y="140">US-MBR-CS-001</text>
<circle class="event-start" cx="228" cy="170" r="18"></circle>
<text class="label" x="207" y="205">시작</text>
<rect class="task" height="64" rx="12" width="122" x="270" y="138"></rect>
<text class="task-text" text-anchor="middle" x="331" y="164">약관 동의</text><text class="task-id" text-anchor="middle" x="331" y="184">PR-MBR-CS-001-01</text>
<rect class="task" height="64" rx="12" width="122" x="418" y="138"></rect>
<text class="task-text" text-anchor="middle" x="479" y="164">개인정보 입력</text><text class="task-id" text-anchor="middle" x="479" y="184">PR-MBR-CS-001-02</text>
<rect class="task" height="64" rx="12" width="122" x="566" y="138"></rect>
<text class="task-text" text-anchor="middle" x="627" y="164">본인인증</text><text class="task-id" text-anchor="middle" x="627" y="184">PR-MBR-CS-001-03</text>
<rect class="task" height="64" rx="12" width="122" x="714" y="138"></rect>
<text class="task-text" text-anchor="middle" x="775" y="164">회원 검증</text><text class="task-id" text-anchor="middle" x="775" y="184">PR-MBR-CS-001-04</text>
<polygon class="gateway" points="878,142 908,172 878,202 848,172"></polygon><text class="gateway-mark" text-anchor="middle" x="878" y="177">X</text><text class="label" text-anchor="middle" x="878" y="222">가입 가능?</text>
<rect class="task-key" height="64" rx="12" width="108" x="944" y="138"></rect>
<text class="task-text" text-anchor="middle" x="998" y="164">가입 처리</text><text class="task-id" text-anchor="middle" x="998" y="184">PR-MBR-CS-001-05</text>
<circle class="event-end-outer" cx="998" cy="248" r="18"></circle><circle class="event-end-inner" cx="998" cy="248" r="13"></circle><text class="label" x="975" y="282">종료</text>
<path class="flow" d="M246 170 L270 170"></path><path class="flow" d="M392 170 L418 170"></path><path class="flow" d="M540 170 L566 170"></path><path class="flow" d="M688 170 L714 170"></path><path class="flow" d="M836 170 L848 170"></path><path class="flow" d="M908 170 L944 170"></path><path class="flow" d="M998 202 L998 230"></path>
<text class="label" x="921" y="158">예</text><path class="flow" d="M878 202 L878 238 L776 238 L776 202"></path><text class="label" x="889" y="232">아니오: 가입제한/재가입 안내</text>
<!-- Pool 2 -->
<rect class="pool" height="250" rx="12" width="1040" x="40" y="320"></rect>
<rect class="pool-head" height="250" rx="12" width="150" x="40" y="320"></rect>
<text class="pool-title" text-anchor="middle" x="115" y="390">휴면 해제</text>
<text class="pool-sub" text-anchor="middle" x="115" y="412">US-MBR-CS-002</text>
<circle class="event-start" cx="228" cy="445" r="18"></circle><text class="label" x="207" y="480">시작</text>
<rect class="task" height="64" rx="12" width="100" x="270" y="413"></rect>
<text class="task-text" text-anchor="middle" x="320" y="439">로그인</text><text class="task-id" text-anchor="middle" x="320" y="459">PR-MBR-CS-002-01</text>
<polygon class="gateway" points="418,417 448,447 418,477 388,447"></polygon><text class="gateway-mark" text-anchor="middle" x="418" y="452">X</text><text class="label" text-anchor="middle" x="418" y="497">휴면 회원?</text>
<rect class="task" height="64" rx="12" width="108" x="492" y="413"></rect>
<text class="task-text" text-anchor="middle" x="546" y="439">본인인증</text><text class="task-id" text-anchor="middle" x="546" y="459">PR-MBR-CS-002-03</text>
<rect class="task" height="64" rx="12" width="108" x="626" y="413"></rect>
<text class="task-text" text-anchor="middle" x="680" y="439">약관 동의</text><text class="task-id" text-anchor="middle" x="680" y="459">PR-MBR-CS-002-04</text>
<rect class="task-key" height="64" rx="12" width="126" x="760" y="413"></rect>
<text class="task-text" text-anchor="middle" x="823" y="439">휴면 해제 처리</text><text class="task-id" text-anchor="middle" x="823" y="459">PR-MBR-CS-002-05</text>
<rect class="task" height="64" rx="12" width="122" x="912" y="413"></rect>
<text class="task-text" text-anchor="middle" x="973" y="439">결과 안내</text><text class="task-id" text-anchor="middle" x="973" y="459">PR-MBR-CS-002-06</text>
<circle class="event-end-outer" cx="1000" cy="530" r="18"></circle><circle class="event-end-inner" cx="1000" cy="530" r="13"></circle><text class="label" x="977" y="564">종료</text>
<path class="flow" d="M246 445 L270 445"></path><path class="flow" d="M370 445 L388 445"></path><path class="flow" d="M448 445 L492 445"></path><path class="flow" d="M600 445 L626 445"></path><path class="flow" d="M734 445 L760 445"></path><path class="flow" d="M886 445 L912 445"></path><path class="flow" d="M973 477 L1000 512"></path>
<text class="label" x="460" y="433">예</text><path class="flow" d="M418 477 L418 530 L982 530"></path><text class="label" x="538" y="523">아니오: 일반 로그인 결과 반환</text>
<text class="label" x="430" y="392">PR-MBR-CS-002-02</text>
<!-- Pool 3 -->
<rect class="pool" height="250" rx="12" width="1040" x="40" y="600"></rect>
<rect class="pool-head" height="250" rx="12" width="150" x="40" y="600"></rect>
<text class="pool-title" text-anchor="middle" x="115" y="670">회원 탈퇴</text>
<text class="pool-sub" text-anchor="middle" x="115" y="692">US-MBR-CS-003</text>
<circle class="event-start" cx="228" cy="725" r="18"></circle><text class="label" x="207" y="760">시작</text>
<rect class="task" height="64" rx="12" width="108" x="270" y="693"></rect>
<text class="task-text" text-anchor="middle" x="324" y="719">본인인증</text><text class="task-id" text-anchor="middle" x="324" y="739">PR-MBR-CS-003-01</text>
<rect class="task" height="64" rx="12" width="122" x="404" y="693"></rect>
<text class="task-text" text-anchor="middle" x="465" y="719">탈퇴 사유 입력</text><text class="task-id" text-anchor="middle" x="465" y="739">PR-MBR-CS-003-02</text>
<rect class="task-warn" height="64" rx="12" width="140" x="552" y="693"></rect>
<text class="task-text" text-anchor="middle" x="622" y="719">탈퇴 전 안내 확인</text><text class="task-id" text-anchor="middle" x="622" y="739">PR-MBR-CS-003-03</text>
<rect class="task-warn" height="64" rx="12" width="126" x="718" y="693"></rect>
<text class="task-text" text-anchor="middle" x="781" y="719">탈퇴 최종 동의</text><text class="task-id" text-anchor="middle" x="781" y="739">PR-MBR-CS-003-04</text>
<polygon class="gateway" points="890,697 920,727 890,757 860,727"></polygon><text class="gateway-mark" text-anchor="middle" x="890" y="732">X</text><text class="label" text-anchor="middle" x="890" y="777">탈퇴 진행?</text>
<rect class="task-key" height="64" rx="12" width="94" x="946" y="693"></rect>
<text class="task-text" text-anchor="middle" x="993" y="719">탈퇴 처리</text><text class="task-id" text-anchor="middle" x="993" y="739">PR-MBR-CS-003-05</text>
<rect class="task" height="50" rx="12" width="94" x="946" y="782"></rect>
<text class="task-text" text-anchor="middle" x="993" y="804">결과 안내</text><text class="task-id" text-anchor="middle" x="993" y="821">PR-MBR-CS-003-06</text>
<circle class="event-end-outer" cx="1070" cy="807" r="18"></circle><circle class="event-end-inner" cx="1070" cy="807" r="13"></circle><text class="label" x="1047" y="841">종료</text>
<path class="flow" d="M246 725 L270 725"></path><path class="flow" d="M378 725 L404 725"></path><path class="flow" d="M526 725 L552 725"></path><path class="flow" d="M692 725 L718 725"></path><path class="flow" d="M844 725 L860 725"></path><path class="flow" d="M920 725 L946 725"></path><path class="flow" d="M993 757 L993 782"></path><path class="flow" d="M1040 807 L1052 807"></path>
<text class="label" x="930" y="713">예</text><path class="flow" d="M890 757 L890 810 L780 810 L780 757"></path><text class="label" x="896" y="804">아니오: 탈퇴 중단</text>
<!-- Pool 4 -->
<rect class="pool" height="250" rx="12" width="1040" x="40" y="880"></rect>
<rect class="pool-head" height="250" rx="12" width="150" x="40" y="880"></rect>
<text class="pool-title" text-anchor="middle" x="115" y="950">재가입</text>
<text class="pool-sub" text-anchor="middle" x="115" y="972">US-MBR-CS-004</text>
<circle class="event-start" cx="228" cy="1005" r="18"></circle><text class="label" x="207" y="1040">시작</text>
<rect class="task" height="64" rx="12" width="108" x="270" y="973"></rect>
<text class="task-text" text-anchor="middle" x="324" y="999">본인인증</text><text class="task-id" text-anchor="middle" x="324" y="1019">PR-MBR-CS-004-01</text>
<rect class="task" height="64" rx="12" width="142" x="404" y="973"></rect>
<text class="task-text" text-anchor="middle" x="475" y="999">기존 회원 이력 확인</text><text class="task-id" text-anchor="middle" x="475" y="1019">PR-MBR-CS-004-02</text>
<polygon class="gateway" points="596,977 626,1007 596,1037 566,1007"></polygon><text class="gateway-mark" text-anchor="middle" x="596" y="1012">X</text><text class="label" text-anchor="middle" x="596" y="1057">재가입 가능?</text>
<text class="label" text-anchor="middle" x="596" y="965">PR-MBR-CS-004-03</text>
<rect class="task" height="64" rx="12" width="118" x="678" y="973"></rect>
<text class="task-text" text-anchor="middle" x="737" y="999">개인정보 입력</text><text class="task-id" text-anchor="middle" x="737" y="1019">PR-MBR-CS-004-04</text>
<rect class="task-key" height="64" rx="12" width="110" x="822" y="973"></rect>
<text class="task-text" text-anchor="middle" x="877" y="999">재가입 처리</text><text class="task-id" text-anchor="middle" x="877" y="1019">PR-MBR-CS-004-05</text>
<circle class="event-end-outer" cx="992" cy="1005" r="18"></circle><circle class="event-end-inner" cx="992" cy="1005" r="13"></circle><text class="label" x="969" y="1040">종료</text>
<path class="flow" d="M246 1005 L270 1005"></path><path class="flow" d="M378 1005 L404 1005"></path><path class="flow" d="M546 1005 L566 1005"></path><path class="flow" d="M626 1005 L678 1005"></path><path class="flow" d="M796 1005 L822 1005"></path><path class="flow" d="M932 1005 L974 1005"></path>
<text class="label" x="640" y="993">예</text><path class="flow" d="M596 1037 L596 1086 L475 1086 L475 1037"></path><text class="label" x="656" y="1078">아니오: 재가입제한 안내</text>
</svg>