<svg aria-label="회원가입 회원탈퇴 정책서 유즈케이스 다이어그램" height="760" role="img" viewbox="0 0 1120 760" width="1120" xmlns="http://www.w3.org/2000/svg">
<defs>
<marker id="arrow" markerheight="7" markerwidth="7" orient="auto-start-reverse" refx="9" refy="5" viewbox="0 0 10 10">
<path d="M 0 0 L 10 5 L 0 10 z" fill="#8a94a6"></path>
</marker>
<style>
            .sysbox { fill:#ffffff; stroke:#c6cfdb; stroke-width:1.5; }
            .actor-line { stroke:#4f5b6a; stroke-width:2; fill:none; }
            .actor-text { font: 14px Arial, 'Malgun Gothic', sans-serif; fill:#222; }
            .title { font: 700 15px Arial, 'Malgun Gothic', sans-serif; fill:#222; }
            .uc { fill:#f7f9fc; stroke:#8fa3bf; stroke-width:1.5; }
            .uc-text { font: 13px Arial, 'Malgun Gothic', sans-serif; fill:#1f2937; }
            .conn { stroke:#8a94a6; stroke-width:1.4; fill:none; }
            .label { font: 12px Arial, 'Malgun Gothic', sans-serif; fill:#5b6472; }
          </style>
</defs>
<!-- system boundary -->
<rect class="sysbox" height="680" rx="12" ry="12" width="540" x="290" y="30"></rect>
<text class="title" text-anchor="middle" x="560" y="55">NC 회원 관리 시스템</text>
<!-- use cases -->
<ellipse class="uc" cx="560" cy="110" rx="90" ry="28"></ellipse>
<text class="uc-text" text-anchor="middle" x="560" y="115">회원 가입</text>
<ellipse class="uc" cx="560" cy="180" rx="90" ry="28"></ellipse>
<text class="uc-text" text-anchor="middle" x="560" y="185">휴면 해제</text>
<ellipse class="uc" cx="560" cy="250" rx="90" ry="28"></ellipse>
<text class="uc-text" text-anchor="middle" x="560" y="255">휴면 전환</text>
<ellipse class="uc" cx="560" cy="320" rx="90" ry="28"></ellipse>
<text class="uc-text" text-anchor="middle" x="560" y="325">회원 탈퇴</text>
<ellipse class="uc" cx="560" cy="390" rx="90" ry="28"></ellipse>
<text class="uc-text" text-anchor="middle" x="560" y="395">재가입</text>
<ellipse class="uc" cx="420" cy="500" rx="90" ry="28"></ellipse>
<text class="uc-text" text-anchor="middle" x="420" y="505">업무처리 동의</text>
<ellipse class="uc" cx="700" cy="500" rx="90" ry="28"></ellipse>
<text class="uc-text" text-anchor="middle" x="700" y="505">본인인증 결과 제공</text>
<ellipse class="uc" cx="420" cy="590" rx="95" ry="28"></ellipse>
<text class="uc-text" text-anchor="middle" x="420" y="595">회원 상태 조회/검증</text>
<ellipse class="uc" cx="700" cy="590" rx="95" ry="28"></ellipse>
<text class="uc-text" text-anchor="middle" x="700" y="595">회원 상태 변경 처리</text>
<!-- include relations -->
<line class="conn" marker-end="url(#arrow)" x1="530" x2="455" y1="133" y2="474"></line>
<text class="label" x="474" y="300">&lt;&lt;include&gt;&gt;</text>
<line class="conn" marker-end="url(#arrow)" x1="590" x2="674" y1="133" y2="474"></line>
<text class="label" x="640" y="305">&lt;&lt;include&gt;&gt;</text>
<line class="conn" marker-end="url(#arrow)" x1="590" x2="674" y1="203" y2="474"></line>
<text class="label" x="648" y="354">&lt;&lt;include&gt;&gt;</text>
<line class="conn" marker-end="url(#arrow)" x1="590" x2="676" y1="203" y2="567"></line>
<text class="label" x="654" y="420">&lt;&lt;include&gt;&gt;</text>
<line class="conn" marker-end="url(#arrow)" x1="530" x2="455" y1="413" y2="524"></line>
<text class="label" x="445" y="470">&lt;&lt;include&gt;&gt;</text>
<line class="conn" marker-end="url(#arrow)" x1="590" x2="676" y1="413" y2="567"></line>
<text class="label" x="648" y="490">&lt;&lt;include&gt;&gt;</text>
<line class="conn" marker-end="url(#arrow)" x1="530" x2="448" y1="343" y2="567"></line>
<text class="label" x="452" y="465">&lt;&lt;include&gt;&gt;</text>
<line class="conn" marker-end="url(#arrow)" x1="590" x2="676" y1="343" y2="567"></line>
<text class="label" x="644" y="458">&lt;&lt;include&gt;&gt;</text>
<line class="conn" marker-end="url(#arrow)" x1="590" x2="676" y1="273" y2="567"></line>
<text class="label" x="646" y="395">&lt;&lt;include&gt;&gt;</text>
<!-- actors left -->
<circle class="actor-line" cx="110" cy="110" r="18"></circle>
<line class="actor-line" x1="110" x2="110" y1="128" y2="175"></line>
<line class="actor-line" x1="84" x2="136" y1="145" y2="145"></line>
<line class="actor-line" x1="110" x2="90" y1="175" y2="210"></line>
<line class="actor-line" x1="110" x2="130" y1="175" y2="210"></line>
<text class="actor-text" text-anchor="middle" x="110" y="235">고객</text>
<circle class="actor-line" cx="110" cy="410" r="18"></circle>
<line class="actor-line" x1="110" x2="110" y1="428" y2="475"></line>
<line class="actor-line" x1="84" x2="136" y1="445" y2="445"></line>
<line class="actor-line" x1="110" x2="90" y1="475" y2="510"></line>
<line class="actor-line" x1="110" x2="130" y1="475" y2="510"></line>
<text class="actor-text" text-anchor="middle" x="110" y="535">법정대리인</text>
<!-- actors right -->
<circle class="actor-line" cx="1010" cy="170" r="18"></circle>
<line class="actor-line" x1="1010" x2="1010" y1="188" y2="235"></line>
<line class="actor-line" x1="984" x2="1036" y1="205" y2="205"></line>
<line class="actor-line" x1="1010" x2="990" y1="235" y2="270"></line>
<line class="actor-line" x1="1010" x2="1030" y1="235" y2="270"></line>
<text class="actor-text" text-anchor="middle" x="1010" y="295">외부 인증기관</text>
<circle class="actor-line" cx="1010" cy="470" r="18"></circle>
<line class="actor-line" x1="1010" x2="1010" y1="488" y2="535"></line>
<line class="actor-line" x1="984" x2="1036" y1="505" y2="505"></line>
<line class="actor-line" x1="1010" x2="990" y1="535" y2="570"></line>
<line class="actor-line" x1="1010" x2="1030" y1="535" y2="570"></line>
<text class="actor-text" text-anchor="middle" x="1010" y="595">BSS</text>
<!-- actor associations -->
<line class="conn" x1="130" x2="470" y1="110" y2="110"></line>
<line class="conn" x1="130" x2="470" y1="110" y2="180"></line>
<line class="conn" x1="130" x2="470" y1="110" y2="320"></line>
<line class="conn" x1="130" x2="470" y1="110" y2="390"></line>
<line class="conn" x1="130" x2="330" y1="410" y2="500"></line>
<line class="conn" x1="920" x2="992" y1="500" y2="205"></line>
<line class="conn" x1="795" x2="992" y1="590" y2="505"></line>
<line class="conn" x1="515" x2="992" y1="590" y2="505"></line>
</svg>