<svg aria-label="전체 업무 흐름도 BPMN" height="1892" role="img" viewBox="0 0 1362 1892" width="1362" xmlns="http://www.w3.org/2000/svg"><defs><marker id="bpmn-arrow" markerHeight="10" markerWidth="10" orient="auto" refX="9" refY="5" viewBox="0 0 10 10"><path d="M0,0 L10,5 L0,10 z" fill="#667085"></path></marker><style>.pool{fill:#fff;stroke:#cfd8e3;stroke-width:1.4;}.pool-head{fill:#eef3f8;stroke:#cfd8e3;stroke-width:1.4;}.pool-index{font:700 13px Arial, 'Malgun Gothic', sans-serif;fill:#3b82f6;}.pool-title{font:700 13px Arial, 'Malgun Gothic', sans-serif;fill:#1f2937;}.task{fill:#f8fafc;stroke:#94a3b8;stroke-width:1.3;}.task-key{fill:#eef5ff;stroke:#6f8fb8;stroke-width:1.5;}.task-text{font:700 12px Arial, 'Malgun Gothic', sans-serif;fill:#1f2937;}.flow{stroke:#667085;stroke-width:1.35;fill:none;}.start{fill:#eaf7ef;stroke:#73b483;stroke-width:1.5;}.end{fill:#f4f4f5;stroke:#71717a;stroke-width:1.5;}.start-text{font:700 10px Arial, 'Malgun Gothic', sans-serif;fill:#374151;}</style></defs><rect class="pool" height="150" rx="14" ry="14" width="1302" x="30" y="32"></rect><rect class="pool-head" height="150" rx="14" ry="14" width="230" x="30" y="32"></rect><text class="pool-index" x="58" y="64">01</text><text class="pool-title" text-anchor="middle" x="145" y="85">US-PDD-CUS-001</text><text class="pool-title" text-anchor="middle" x="145" y="101">상품 가치 탐색과 이해</text><circle class="start" cx="300" cy="108" r="17"></circle><text class="start-text" text-anchor="middle" x="300" y="112">Start</text><rect class="task-key" height="66" rx="12" ry="12" width="160" x="330" y="75"></rect><text class="task-text" text-anchor="middle" x="410" y="96">PR-PDD-DTL-001</text><text class="task-text" text-anchor="middle" x="410" y="119">상품 상세 핵심 요약 탐색</text><line class="flow" marker-end="url(#bpmn-arrow)" x1="317" x2="324" y1="108" y2="108"></line><rect class="task" height="66" rx="12" ry="12" width="160" x="515" y="75"></rect><text class="task-text" text-anchor="middle" x="595" y="96">PR-PDD-DTL-002</text><text class="task-text" text-anchor="middle" x="595" y="119">미디어·스펙·후기 이해</text><line class="flow" marker-end="url(#bpmn-arrow)" x1="494" x2="509" y1="108" y2="108"></line><rect class="task-key" height="66" rx="12" ry="12" width="160" x="700" y="75"></rect><text class="task-text" text-anchor="middle" x="780" y="96">PR-PDD-DTL-003</text><text class="task-text" text-anchor="middle" x="780" y="119">혜택·가격·주의사항 확인</text><line class="flow" marker-end="url(#bpmn-arrow)" x1="679" x2="694" y1="108" y2="108"></line><line class="flow" marker-end="url(#bpmn-arrow)" x1="864" x2="897" y1="108" y2="108"></line><circle class="end" cx="918" cy="108" r="17"></circle><text class="start-text" text-anchor="middle" x="918" y="112">End</text><rect class="pool" height="150" rx="14" ry="14" width="1302" x="30" y="200"></rect><rect class="pool-head" height="150" rx="14" ry="14" width="230" x="30" y="200"></rect><text class="pool-index" x="58" y="232">02</text><text class="pool-title" text-anchor="middle" x="145" y="253">US-PDD-CUS-002</text><text class="pool-title" text-anchor="middle" x="145" y="269">상품 조건 비교와 맞춤 판단</text><circle class="start" cx="300" cy="276" r="17"></circle><text class="start-text" text-anchor="middle" x="300" y="280">Start</text><rect class="task-key" height="66" rx="12" ry="12" width="160" x="330" y="243"></rect><text class="task-text" text-anchor="middle" x="410" y="264">PR-PDD-CMP-001</text><text class="task-text" text-anchor="middle" x="410" y="287">고객 상태 기반 적합성 파악</text><line class="flow" marker-end="url(#bpmn-arrow)" x1="317" x2="324" y1="276" y2="276"></line><rect class="task" height="66" rx="12" ry="12" width="160" x="515" y="243"></rect><text class="task-text" text-anchor="middle" x="595" y="264">PR-PDD-CMP-002</text><text class="task-text" text-anchor="middle" x="595" y="287">비교 컴포넌트로 대안 비교</text><line class="flow" marker-end="url(#bpmn-arrow)" x1="494" x2="509" y1="276" y2="276"></line><rect class="task-key" height="66" rx="12" ry="12" width="160" x="700" y="243"></rect><text class="task-text" text-anchor="middle" x="780" y="264">PR-PDD-CMP-003</text><text class="task-text" text-anchor="middle" x="780" y="287">추천·AI 요약 근거 검토</text><line class="flow" marker-end="url(#bpmn-arrow)" x1="679" x2="694" y1="276" y2="276"></line><line class="flow" marker-end="url(#bpmn-arrow)" x1="864" x2="897" y1="276" y2="276"></line><circle class="end" cx="918" cy="276" r="17"></circle><text class="start-text" text-anchor="middle" x="918" y="280">End</text><rect class="pool" height="150" rx="14" ry="14" width="1302" x="30" y="368"></rect><rect class="pool-head" height="150" rx="14" ry="14" width="230" x="30" y="368"></rect><text class="pool-index" x="58" y="400">03</text><text class="pool-title" text-anchor="middle" x="145" y="421">US-PDD-CUS-003</text><text class="pool-title" text-anchor="middle" x="145" y="437">상품 구성 선택과 담기 준비</text><circle class="start" cx="300" cy="444" r="17"></circle><text class="start-text" text-anchor="middle" x="300" y="448">Start</text><rect class="task-key" height="66" rx="12" ry="12" width="160" x="330" y="411"></rect><text class="task-text" text-anchor="middle" x="410" y="432">PR-PDD-SEL-001</text><text class="task-text" text-anchor="middle" x="410" y="455">옵션·구성 선택</text><line class="flow" marker-end="url(#bpmn-arrow)" x1="317" x2="324" y1="444" y2="444"></line><rect class="task" height="66" rx="12" ry="12" width="160" x="515" y="411"></rect><text class="task-text" text-anchor="middle" x="595" y="432">PR-PDD-SEL-002</text><text class="task-text" text-anchor="middle" x="595" y="455">가입·구매 조건 검증</text><line class="flow" marker-end="url(#bpmn-arrow)" x1="494" x2="509" y1="444" y2="444"></line><rect class="task" height="66" rx="12" ry="12" width="160" x="700" y="411"></rect><text class="task-text" text-anchor="middle" x="780" y="432">PR-PDD-SEL-003</text><text class="task-text" text-anchor="middle" x="780" y="455">예상 비용·혜택 요약</text><line class="flow" marker-end="url(#bpmn-arrow)" x1="679" x2="694" y1="444" y2="444"></line><rect class="task-key" height="66" rx="12" ry="12" width="160" x="885" y="411"></rect><text class="task-text" text-anchor="middle" x="965" y="432">PR-PDD-SEL-004</text><text class="task-text" text-anchor="middle" x="965" y="455">공유·딥링크·문의 맥락 유지</text><line class="flow" marker-end="url(#bpmn-arrow)" x1="864" x2="879" y1="444" y2="444"></line><line class="flow" marker-end="url(#bpmn-arrow)" x1="1049" x2="1082" y1="444" y2="444"></line><circle class="end" cx="1103" cy="444" r="17"></circle><text class="start-text" text-anchor="middle" x="1103" y="448">End</text><rect class="pool" height="150" rx="14" ry="14" width="1302" x="30" y="536"></rect><rect class="pool-head" height="150" rx="14" ry="14" width="230" x="30" y="536"></rect><text class="pool-index" x="58" y="568">04</text><text class="pool-title" text-anchor="middle" x="145" y="589">US-PDD-CUS-004</text><text class="pool-title" text-anchor="middle" x="145" y="605">상품 담기 여정 완성</text><circle class="start" cx="300" cy="612" r="17"></circle><text class="start-text" text-anchor="middle" x="300" y="616">Start</text><rect class="task-key" height="66" rx="12" ry="12" width="160" x="330" y="579"></rect><text class="task-text" text-anchor="middle" x="410" y="600">PR-PDD-SAVE-001</text><text class="task-text" text-anchor="middle" x="410" y="623">담기 전 유효성 재검증</text><line class="flow" marker-end="url(#bpmn-arrow)" x1="317" x2="324" y1="612" y2="612"></line><rect class="task" height="66" rx="12" ry="12" width="160" x="515" y="579"></rect><text class="task-text" text-anchor="middle" x="595" y="600">PR-PDD-SAVE-002</text><text class="task-text" text-anchor="middle" x="595" y="623">담기 실행과 상태 저장</text><line class="flow" marker-end="url(#bpmn-arrow)" x1="494" x2="509" y1="612" y2="612"></line><rect class="task" height="66" rx="12" ry="12" width="160" x="700" y="579"></rect><text class="task-text" text-anchor="middle" x="780" y="600">PR-PDD-SAVE-003</text><text class="task-text" text-anchor="middle" x="780" y="616">담기 완료 후 다음 행동</text><text class="task-text" text-anchor="middle" x="780" y="630">선택</text><line class="flow" marker-end="url(#bpmn-arrow)" x1="679" x2="694" y1="612" y2="612"></line><rect class="task-key" height="66" rx="12" ry="12" width="160" x="885" y="579"></rect><text class="task-text" text-anchor="middle" x="965" y="600">PR-PDD-SAVE-004</text><text class="task-text" text-anchor="middle" x="965" y="623">장바구니·주문 진입 연결</text><line class="flow" marker-end="url(#bpmn-arrow)" x1="864" x2="879" y1="612" y2="612"></line><line class="flow" marker-end="url(#bpmn-arrow)" x1="1049" x2="1082" y1="612" y2="612"></line><circle class="end" cx="1103" cy="612" r="17"></circle><text class="start-text" text-anchor="middle" x="1103" y="616">End</text><rect class="pool" height="150" rx="14" ry="14" width="1302" x="30" y="704"></rect><rect class="pool-head" height="150" rx="14" ry="14" width="230" x="30" y="704"></rect><text class="pool-index" x="58" y="736">05</text><text class="pool-title" text-anchor="middle" x="145" y="757">US-PDD-CUS-005</text><text class="pool-title" text-anchor="middle" x="145" y="773">담기 실패 복구와 상담 전환</text><circle class="start" cx="300" cy="780" r="17"></circle><text class="start-text" text-anchor="middle" x="300" y="784">Start</text><rect class="task-key" height="66" rx="12" ry="12" width="160" x="330" y="747"></rect><text class="task-text" text-anchor="middle" x="410" y="768">PR-PDD-ERR-001</text><text class="task-text" text-anchor="middle" x="410" y="791">선택 불가·충돌 사유 안내</text><line class="flow" marker-end="url(#bpmn-arrow)" x1="317" x2="324" y1="780" y2="780"></line><rect class="task" height="66" rx="12" ry="12" width="160" x="515" y="747"></rect><text class="task-text" text-anchor="middle" x="595" y="768">PR-PDD-ERR-002</text><text class="task-text" text-anchor="middle" x="595" y="791">로그인·인증 후 원위치 복귀</text><line class="flow" marker-end="url(#bpmn-arrow)" x1="494" x2="509" y1="780" y2="780"></line><rect class="task-key" height="66" rx="12" ry="12" width="160" x="700" y="747"></rect><text class="task-text" text-anchor="middle" x="780" y="768">PR-PDD-ERR-003</text><text class="task-text" text-anchor="middle" x="780" y="791">상담 전환과 실패 이력 전달</text><line class="flow" marker-end="url(#bpmn-arrow)" x1="679" x2="694" y1="780" y2="780"></line><line class="flow" marker-end="url(#bpmn-arrow)" x1="864" x2="897" y1="780" y2="780"></line><circle class="end" cx="918" cy="780" r="17"></circle><text class="start-text" text-anchor="middle" x="918" y="784">End</text><rect class="pool" height="150" rx="14" ry="14" width="1302" x="30" y="872"></rect><rect class="pool-head" height="150" rx="14" ry="14" width="230" x="30" y="872"></rect><text class="pool-index" x="58" y="904">06</text><text class="pool-title" text-anchor="middle" x="145" y="917">US-PDD-OPS-001</text><text class="pool-title" text-anchor="middle" x="145" y="933">상품 상세 템플릿과 원장</text><text class="pool-title" text-anchor="middle" x="145" y="949">운영</text><circle class="start" cx="300" cy="948" r="17"></circle><text class="start-text" text-anchor="middle" x="300" y="952">Start</text><rect class="task-key" height="66" rx="12" ry="12" width="160" x="330" y="915"></rect><text class="task-text" text-anchor="middle" x="410" y="936">PR-PDD-TPL-001</text><text class="task-text" text-anchor="middle" x="410" y="959">상품 상세 표준 템플릿 등록</text><line class="flow" marker-end="url(#bpmn-arrow)" x1="317" x2="324" y1="948" y2="948"></line><rect class="task" height="66" rx="12" ry="12" width="160" x="515" y="915"></rect><text class="task-text" text-anchor="middle" x="595" y="936">PR-PDD-TPL-002</text><text class="task-text" text-anchor="middle" x="595" y="952">상품군별 모듈·정책 문구</text><text class="task-text" text-anchor="middle" x="595" y="966">운영</text><line class="flow" marker-end="url(#bpmn-arrow)" x1="494" x2="509" y1="948" y2="948"></line><rect class="task" height="66" rx="12" ry="12" width="160" x="700" y="915"></rect><text class="task-text" text-anchor="middle" x="780" y="936">PR-PDD-TPL-003</text><text class="task-text" text-anchor="middle" x="780" y="959">원장·라이프사이클 연동 검수</text><line class="flow" marker-end="url(#bpmn-arrow)" x1="679" x2="694" y1="948" y2="948"></line><rect class="task" height="66" rx="12" ry="12" width="160" x="885" y="915"></rect><text class="task-text" text-anchor="middle" x="965" y="936">PR-PDD-TPL-004</text><text class="task-text" text-anchor="middle" x="965" y="959">운영 입력·검증·삭제 보호</text><line class="flow" marker-end="url(#bpmn-arrow)" x1="864" x2="879" y1="948" y2="948"></line><rect class="task-key" height="66" rx="12" ry="12" width="160" x="1070" y="915"></rect><text class="task-text" text-anchor="middle" x="1150" y="936">PR-PDD-TPL-005</text><text class="task-text" text-anchor="middle" x="1150" y="952">후기·Q&amp;A 운영</text><text class="task-text" text-anchor="middle" x="1150" y="966">기준 관리</text><line class="flow" marker-end="url(#bpmn-arrow)" x1="1049" x2="1064" y1="948" y2="948"></line><line class="flow" marker-end="url(#bpmn-arrow)" x1="1234" x2="1267" y1="948" y2="948"></line><circle class="end" cx="1288" cy="948" r="17"></circle><text class="start-text" text-anchor="middle" x="1288" y="952">End</text><rect class="pool" height="150" rx="14" ry="14" width="1302" x="30" y="1040"></rect><rect class="pool-head" height="150" rx="14" ry="14" width="230" x="30" y="1040"></rect><text class="pool-index" x="58" y="1072">07</text><text class="pool-title" text-anchor="middle" x="145" y="1093">US-PDD-OPS-002</text><text class="pool-title" text-anchor="middle" x="145" y="1109">상품 비교·추천 기준 운영</text><circle class="start" cx="300" cy="1116" r="17"></circle><text class="start-text" text-anchor="middle" x="300" y="1120">Start</text><rect class="task-key" height="66" rx="12" ry="12" width="160" x="330" y="1083"></rect><text class="task-text" text-anchor="middle" x="410" y="1104">PR-PDD-REC-001</text><text class="task-text" text-anchor="middle" x="410" y="1127">비교 기준·속성 관리</text><line class="flow" marker-end="url(#bpmn-arrow)" x1="317" x2="324" y1="1116" y2="1116"></line><rect class="task" height="66" rx="12" ry="12" width="160" x="515" y="1083"></rect><text class="task-text" text-anchor="middle" x="595" y="1104">PR-PDD-REC-002</text><text class="task-text" text-anchor="middle" x="595" y="1127">AI 요약·후기·추천 운영</text><line class="flow" marker-end="url(#bpmn-arrow)" x1="494" x2="509" y1="1116" y2="1116"></line><rect class="task" height="66" rx="12" ry="12" width="160" x="700" y="1083"></rect><text class="task-text" text-anchor="middle" x="780" y="1104">PR-PDD-REC-003</text><text class="task-text" text-anchor="middle" x="780" y="1127">마케팅 정보·성과 개선</text><line class="flow" marker-end="url(#bpmn-arrow)" x1="679" x2="694" y1="1116" y2="1116"></line><rect class="task-key" height="66" rx="12" ry="12" width="160" x="885" y="1083"></rect><text class="task-text" text-anchor="middle" x="965" y="1104">PR-PDD-TPL-006</text><text class="task-text" text-anchor="middle" x="965" y="1120">키워드·카테고리 운영 기준</text><text class="task-text" text-anchor="middle" x="965" y="1134">관리</text><line class="flow" marker-end="url(#bpmn-arrow)" x1="864" x2="879" y1="1116" y2="1116"></line><line class="flow" marker-end="url(#bpmn-arrow)" x1="1049" x2="1082" y1="1116" y2="1116"></line><circle class="end" cx="1103" cy="1116" r="17"></circle><text class="start-text" text-anchor="middle" x="1103" y="1120">End</text><rect class="pool" height="150" rx="14" ry="14" width="1302" x="30" y="1208"></rect><rect class="pool-head" height="150" rx="14" ry="14" width="230" x="30" y="1208"></rect><text class="pool-index" x="58" y="1240">08</text><text class="pool-title" text-anchor="middle" x="145" y="1261">US-PDD-OPS-003</text><text class="pool-title" text-anchor="middle" x="145" y="1277">상품 관계·담기 정책 운영</text><circle class="start" cx="300" cy="1284" r="17"></circle><text class="start-text" text-anchor="middle" x="300" y="1288">Start</text><rect class="task-key" height="66" rx="12" ry="12" width="160" x="330" y="1251"></rect><text class="task-text" text-anchor="middle" x="410" y="1272">PR-PDD-RUL-001</text><text class="task-text" text-anchor="middle" x="410" y="1288">상품 관계·동시 주문 정책</text><text class="task-text" text-anchor="middle" x="410" y="1302">관리</text><line class="flow" marker-end="url(#bpmn-arrow)" x1="317" x2="324" y1="1284" y2="1284"></line><rect class="task" height="66" rx="12" ry="12" width="160" x="515" y="1251"></rect><text class="task-text" text-anchor="middle" x="595" y="1272">PR-PDD-RUL-002</text><text class="task-text" text-anchor="middle" x="595" y="1288">가입·유지·해지 조건 정책</text><text class="task-text" text-anchor="middle" x="595" y="1302">관리</text><line class="flow" marker-end="url(#bpmn-arrow)" x1="494" x2="509" y1="1284" y2="1284"></line><rect class="task-key" height="66" rx="12" ry="12" width="160" x="700" y="1251"></rect><text class="task-text" text-anchor="middle" x="780" y="1272">PR-PDD-RUL-003</text><text class="task-text" text-anchor="middle" x="780" y="1295">담기 규칙·조합 정책 관리</text><line class="flow" marker-end="url(#bpmn-arrow)" x1="679" x2="694" y1="1284" y2="1284"></line><line class="flow" marker-end="url(#bpmn-arrow)" x1="864" x2="897" y1="1284" y2="1284"></line><circle class="end" cx="918" cy="1284" r="17"></circle><text class="start-text" text-anchor="middle" x="918" y="1288">End</text><rect class="pool" height="150" rx="14" ry="14" width="1302" x="30" y="1376"></rect><rect class="pool-head" height="150" rx="14" ry="14" width="230" x="30" y="1376"></rect><text class="pool-index" x="58" y="1408">09</text><text class="pool-title" text-anchor="middle" x="145" y="1429">US-PDD-OPS-004</text><text class="pool-title" text-anchor="middle" x="145" y="1445">재고·배송·판매 상태 운영</text><circle class="start" cx="300" cy="1452" r="17"></circle><text class="start-text" text-anchor="middle" x="300" y="1456">Start</text><rect class="task-key" height="66" rx="12" ry="12" width="160" x="330" y="1419"></rect><text class="task-text" text-anchor="middle" x="410" y="1440">PR-PDD-STK-001</text><text class="task-text" text-anchor="middle" x="410" y="1463">재고·수량·판매 상태 운영</text><line class="flow" marker-end="url(#bpmn-arrow)" x1="317" x2="324" y1="1452" y2="1452"></line><rect class="task" height="66" rx="12" ry="12" width="160" x="515" y="1419"></rect><text class="task-text" text-anchor="middle" x="595" y="1440">PR-PDD-STK-002</text><text class="task-text" text-anchor="middle" x="595" y="1463">배송·픽업 가능성 기준 운영</text><line class="flow" marker-end="url(#bpmn-arrow)" x1="494" x2="509" y1="1452" y2="1452"></line><rect class="task" height="66" rx="12" ry="12" width="160" x="700" y="1419"></rect><text class="task-text" text-anchor="middle" x="780" y="1440">PR-PDD-STK-003</text><text class="task-text" text-anchor="middle" x="780" y="1463">예약판매·시장 대응 자동화</text><line class="flow" marker-end="url(#bpmn-arrow)" x1="679" x2="694" y1="1452" y2="1452"></line><rect class="task" height="66" rx="12" ry="12" width="160" x="885" y="1419"></rect><text class="task-text" text-anchor="middle" x="965" y="1440">PR-PDD-STK-004</text><text class="task-text" text-anchor="middle" x="965" y="1456">디바이스·액세서리·연동기기</text><text class="task-text" text-anchor="middle" x="965" y="1470">상태 운영</text><line class="flow" marker-end="url(#bpmn-arrow)" x1="864" x2="879" y1="1452" y2="1452"></line><rect class="task-key" height="66" rx="12" ry="12" width="160" x="1070" y="1419"></rect><text class="task-text" text-anchor="middle" x="1150" y="1440">PR-PDD-STK-005</text><text class="task-text" text-anchor="middle" x="1150" y="1463">외부채널 상품 설정 운영</text><line class="flow" marker-end="url(#bpmn-arrow)" x1="1049" x2="1064" y1="1452" y2="1452"></line><line class="flow" marker-end="url(#bpmn-arrow)" x1="1234" x2="1267" y1="1452" y2="1452"></line><circle class="end" cx="1288" cy="1452" r="17"></circle><text class="start-text" text-anchor="middle" x="1288" y="1456">End</text><rect class="pool" height="150" rx="14" ry="14" width="1302" x="30" y="1544"></rect><rect class="pool-head" height="150" rx="14" ry="14" width="230" x="30" y="1544"></rect><text class="pool-index" x="58" y="1576">10</text><text class="pool-title" text-anchor="middle" x="145" y="1589">US-PDD-OPS-005</text><text class="pool-title" text-anchor="middle" x="145" y="1605">담기 불편 모니터링과 조치</text><text class="pool-title" text-anchor="middle" x="145" y="1621">운영</text><circle class="start" cx="300" cy="1620" r="17"></circle><text class="start-text" text-anchor="middle" x="300" y="1624">Start</text><rect class="task-key" height="66" rx="12" ry="12" width="160" x="330" y="1587"></rect><text class="task-text" text-anchor="middle" x="410" y="1608">PR-PDD-MON-001</text><text class="task-text" text-anchor="middle" x="410" y="1631">담기 활동·실시간 현황 조회</text><line class="flow" marker-end="url(#bpmn-arrow)" x1="317" x2="324" y1="1620" y2="1620"></line><rect class="task" height="66" rx="12" ry="12" width="160" x="515" y="1587"></rect><text class="task-text" text-anchor="middle" x="595" y="1608">PR-PDD-MON-002</text><text class="task-text" text-anchor="middle" x="595" y="1631">불편 이벤트 탐지 기준 관리</text><line class="flow" marker-end="url(#bpmn-arrow)" x1="494" x2="509" y1="1620" y2="1620"></line><rect class="task" height="66" rx="12" ry="12" width="160" x="700" y="1587"></rect><text class="task-text" text-anchor="middle" x="780" y="1608">PR-PDD-MON-003</text><text class="task-text" text-anchor="middle" x="780" y="1631">알림·에스컬레이션 조치</text><line class="flow" marker-end="url(#bpmn-arrow)" x1="679" x2="694" y1="1620" y2="1620"></line><rect class="task-key" height="66" rx="12" ry="12" width="160" x="885" y="1587"></rect><text class="task-text" text-anchor="middle" x="965" y="1608">PR-PDD-MON-004</text><text class="task-text" text-anchor="middle" x="965" y="1631">알림 이력·개선 결과 추적</text><line class="flow" marker-end="url(#bpmn-arrow)" x1="864" x2="879" y1="1620" y2="1620"></line><line class="flow" marker-end="url(#bpmn-arrow)" x1="1049" x2="1082" y1="1620" y2="1620"></line><circle class="end" cx="1103" cy="1620" r="17"></circle><text class="start-text" text-anchor="middle" x="1103" y="1624">End</text><rect class="pool" height="150" rx="14" ry="14" width="1302" x="30" y="1712"></rect><rect class="pool-head" height="150" rx="14" ry="14" width="230" x="30" y="1712"></rect><text class="pool-index" x="58" y="1744">11</text><text class="pool-title" text-anchor="middle" x="145" y="1765">US-PDD-CS-001</text><text class="pool-title" text-anchor="middle" x="145" y="1781">상품 문맥 기반 상담 지원</text><circle class="start" cx="300" cy="1788" r="17"></circle><text class="start-text" text-anchor="middle" x="300" y="1792">Start</text><rect class="task-key" height="66" rx="12" ry="12" width="160" x="330" y="1755"></rect><text class="task-text" text-anchor="middle" x="410" y="1776">PR-PDD-CS-001</text><text class="task-text" text-anchor="middle" x="410" y="1799">상품 선택 문맥 상담 진입</text><line class="flow" marker-end="url(#bpmn-arrow)" x1="317" x2="324" y1="1788" y2="1788"></line><rect class="task-key" height="66" rx="12" ry="12" width="160" x="515" y="1755"></rect><text class="task-text" text-anchor="middle" x="595" y="1776">PR-PDD-CS-002</text><text class="task-text" text-anchor="middle" x="595" y="1799">실패·충돌 상담 처리</text><line class="flow" marker-end="url(#bpmn-arrow)" x1="494" x2="509" y1="1788" y2="1788"></line><line class="flow" marker-end="url(#bpmn-arrow)" x1="679" x2="712" y1="1788" y2="1788"></line><circle class="end" cx="733" cy="1788" r="17"></circle><text class="start-text" text-anchor="middle" x="733" y="1792">End</text></svg>