<svg aria-label="상태 전이 다이어그램" height="862" role="img" viewBox="0 0 1120 862" width="1120" xmlns="http://www.w3.org/2000/svg"><defs><marker id="state-arrow" markerHeight="8" markerWidth="8" orient="auto" refX="7" refY="4" viewBox="0 0 8 8"><path d="M0,0 L8,4 L0,8 z" fill="#7b8798"></path></marker><style>.boundary { fill:#ffffff; stroke:#c6cfdb; stroke-width:1.5; }.d-title { font:700 15px Arial, 'Malgun Gothic', sans-serif; fill:#222; }.state { fill:#f7f9fc; stroke:#8fa3bf; stroke-width:1.6; }.state-major { fill:#eef5ff; stroke:#6f8fb8; stroke-width:1.8; }.state-alert { fill:#fff5f5; stroke:#d69a9a; stroke-width:1.6; }.state-text { font:700 13px Arial, 'Malgun Gothic', sans-serif; fill:#1f2937; }.state-sub { font:12px Arial, 'Malgun Gothic', sans-serif; fill:#4b5563; }.flow { stroke:#7b8798; stroke-width:1.5; fill:none; marker-end:url(#state-arrow); }.flow-dash { stroke:#9aa5b5; stroke-width:1.4; fill:none; stroke-dasharray:6 5; marker-end:url(#state-arrow); }.flow-label { font:12px Arial, 'Malgun Gothic', sans-serif; fill:#4b5563; }.flow-label-bg { fill:#ffffff; stroke:#e5edf7; stroke-width:1; opacity:.96; }.note { font:12px Arial, 'Malgun Gothic', sans-serif; fill:#6b7280; }</style></defs><rect class="boundary" height="784" rx="12" ry="12" width="1040" x="40" y="28"></rect><text class="d-title" text-anchor="middle" x="560" y="56">상태 전이</text><line class="flow" x1="354.0" x2="376.0" y1="134.0" y2="134.0"></line><path class="flow-dash" d="M300.0 166.0 C300.0 236.0, 180.0 214.0, 180.0 284.0"></path><path class="flow-dash" d="M234.0 316.0 C234.0 246.0, 636.0 204.0, 636.0 134.0"></path><path class="flow-dash" d="M234.0 316.0 C306.7 244.0, 306.7 244.0, 379.3 316.0"></path><path class="flow-dash" d="M234.0 316.0 C433.3 244.0, 433.3 244.0, 632.7 316.0"></path><line class="flow" x1="484.0" x2="506.0" y1="134.0" y2="134.0"></line><line class="flow" x1="614.0" x2="636.0" y1="134.0" y2="134.0"></line><path class="flow-dash" d="M614.0 134.0 C614.0 204.0, 886.0 246.0, 886.0 316.0"></path><path class="flow-dash" d="M506.0 134.0 C506.0 204.0, 234.0 400.0, 234.0 470.0"></path><line class="flow" x1="744.0" x2="766.0" y1="134.0" y2="134.0"></line><line class="flow" x1="874.0" x2="896.0" y1="134.0" y2="134.0"></line><path class="flow-dash" d="M433.3 348.0 C433.3 418.0, 433.3 368.0, 433.3 438.0"></path><path class="flow-dash" d="M632.7 316.0 C632.7 386.0, 487.3 400.0, 487.3 470.0"></path><path class="flow-dash" d="M886.0 316.0 C886.0 246.0, 614.0 204.0, 614.0 134.0"></path><path class="flow-dash" d="M487.3 316.0 C487.3 386.0, 632.7 400.0, 632.7 470.0"></path><line class="flow" x1="224.0" x2="246.0" y1="134.0" y2="134.0"></line><path class="flow-dash" d="M886.0 470.0 C886.0 400.0, 354.0 204.0, 354.0 134.0"></path><path class="flow-dash" d="M170.0 166.0 C170.0 236.0, 180.0 522.0, 180.0 592.0"></path><path class="flow-dash" d="M234.0 624.0 C370.0 552.0, 370.0 552.0, 506.0 624.0"></path><path class="flow-dash" d="M234.0 624.0 C560.0 552.0, 560.0 552.0, 886.0 624.0"></path><path class="flow-dash" d="M886.0 624.0 C560.0 552.0, 560.0 552.0, 234.0 624.0"></path><path class="flow-dash" d="M560.0 592.0 C560.0 522.0, 300.0 236.0, 300.0 166.0"></path><rect class="state-major" height="64" rx="29" ry="29" width="108" x="116.0" y="102.0"></rect><text class="state-text" text-anchor="middle" x="170" y="128">운영 확인 필요</text><text class="state-sub" text-anchor="middle" x="170" y="151">ST-PDD-013</text><rect class="state" height="64" rx="29" ry="29" width="108" x="246.0" y="102.0"></rect><text class="state-text" text-anchor="middle" x="300" y="128">탐색 가능</text><text class="state-sub" text-anchor="middle" x="300" y="151">ST-PDD-001</text><rect class="state" height="64" rx="29" ry="29" width="108" x="376.0" y="102.0"></rect><text class="state-text" text-anchor="middle" x="430" y="128">비교 검토 중</text><text class="state-sub" text-anchor="middle" x="430" y="151">ST-PDD-003</text><rect class="state" height="64" rx="29" ry="29" width="108" x="506.0" y="102.0"></rect><text class="state-text" text-anchor="middle" x="560" y="128">구성 선택 중</text><text class="state-sub" text-anchor="middle" x="560" y="151">ST-PDD-004</text><rect class="state" height="64" rx="29" ry="29" width="108" x="636.0" y="102.0"></rect><text class="state-text" text-anchor="middle" x="690" y="128">담기 가능</text><text class="state-sub" text-anchor="middle" x="690" y="151">ST-PDD-005</text><rect class="state-major" height="64" rx="29" ry="29" width="108" x="766.0" y="102.0"></rect><text class="state-text" text-anchor="middle" x="820" y="128">담기 완료</text><text class="state-sub" text-anchor="middle" x="820" y="151">ST-PDD-006</text><rect class="state-major" height="64" rx="29" ry="29" width="108" x="896.0" y="102.0"></rect><text class="state-text" text-anchor="middle" x="950" y="128">주문 전환 가능</text><text class="state-sub" text-anchor="middle" x="950" y="151">ST-PDD-007</text><rect class="state" height="64" rx="29" ry="29" width="108" x="126.0" y="284.0"></rect><text class="state-text" text-anchor="middle" x="180" y="310">조건 확인 필요</text><text class="state-sub" text-anchor="middle" x="180" y="333">ST-PDD-002</text><rect class="state-alert" height="64" rx="29" ry="29" width="108" x="379.3" y="284.0"></rect><text class="state-text" text-anchor="middle" x="433" y="310">선택 불가</text><text class="state-sub" text-anchor="middle" x="433" y="333">ST-PDD-008</text><rect class="state" height="64" rx="29" ry="29" width="108" x="632.7" y="284.0"></rect><text class="state-text" text-anchor="middle" x="686" y="310">인증 필요</text><text class="state-sub" text-anchor="middle" x="686" y="333">ST-PDD-009</text><rect class="state" height="64" rx="29" ry="29" width="108" x="886.0" y="284.0"></rect><text class="state-text" text-anchor="middle" x="940" y="310">조합 충돌</text><text class="state-sub" text-anchor="middle" x="940" y="333">ST-PDD-010</text><rect class="state" height="64" rx="29" ry="29" width="108" x="126.0" y="438.0"></rect><text class="state-text" text-anchor="middle" x="180" y="464">재고 부족</text><text class="state-sub" text-anchor="middle" x="180" y="487">ST-PDD-011</text><rect class="state" height="64" rx="29" ry="29" width="108" x="379.3" y="438.0"></rect><text class="state-text" text-anchor="middle" x="433" y="464">재진입 가능</text><text class="state-sub" text-anchor="middle" x="433" y="487">ST-PDD-015</text><rect class="state" height="64" rx="29" ry="29" width="108" x="632.7" y="438.0"></rect><text class="state-text" text-anchor="middle" x="686" y="464">상담 전환 필요</text><text class="state-sub" text-anchor="middle" x="686" y="487">ST-PDD-012</text><rect class="state" height="64" rx="29" ry="29" width="108" x="886.0" y="438.0"></rect><text class="state-text" text-anchor="middle" x="940" y="464">판매 중지</text><text class="state-sub" text-anchor="middle" x="940" y="487">ST-PDD-014</text><rect class="state" height="64" rx="29" ry="29" width="108" x="126.0" y="592.0"></rect><text class="state-text" text-anchor="middle" x="180" y="618">운영 반영 대기</text><text class="state-sub" text-anchor="middle" x="180" y="641">ST-PDD-016</text><rect class="state-major" height="64" rx="29" ry="29" width="108" x="506.0" y="592.0"></rect><text class="state-text" text-anchor="middle" x="560" y="618">운영 반영 완료</text><text class="state-sub" text-anchor="middle" x="560" y="641">ST-PDD-018</text><rect class="state" height="64" rx="29" ry="29" width="108" x="886.0" y="592.0"></rect><text class="state-text" text-anchor="middle" x="940" y="618">운영 보완 필요</text><text class="state-sub" text-anchor="middle" x="940" y="641">ST-PDD-017</text><rect class="flow-label-bg" height="24" rx="8" ry="8" width="106" x="312.0" y="74.0"></rect><text class="flow-label" text-anchor="middle" x="365.0" y="91.0">상품 가치 탐색과 이해</text><rect class="flow-label-bg" height="38" rx="8" ry="8" width="106" x="187.0" y="201.0"></rect><text class="flow-label" text-anchor="middle" x="240.0" y="218.0">상품 조건 비교와 맞춤</text><text class="flow-label" text-anchor="middle" x="240.0" y="232.0">판단</text><rect class="flow-label-bg" height="24" rx="8" ry="8" width="99" x="385.5" y="179.0"></rect><text class="flow-label" text-anchor="middle" x="435.0" y="196.0">고객·회선 조건 판정</text><rect class="flow-label-bg" height="24" rx="8" ry="8" width="99" x="257.2" y="216.0"></rect><text class="flow-label" text-anchor="middle" x="306.7" y="233.0">고객·회선 조건 판정</text><rect class="flow-label-bg" height="38" rx="8" ry="8" width="106" x="380.3" y="202.0"></rect><text class="flow-label" text-anchor="middle" x="433.3" y="219.0">상품 구성 선택과 담기</text><text class="flow-label" text-anchor="middle" x="433.3" y="233.0">준비</text><rect class="flow-label-bg" height="38" rx="8" ry="8" width="106" x="442.0" y="60.0"></rect><text class="flow-label" text-anchor="middle" x="495.0" y="77.0">상품 조건 비교와 맞춤</text><text class="flow-label" text-anchor="middle" x="495.0" y="91.0">판단</text><rect class="flow-label-bg" height="38" rx="8" ry="8" width="106" x="572.0" y="60.0"></rect><text class="flow-label" text-anchor="middle" x="625.0" y="77.0">상품 구성 선택과 담기</text><text class="flow-label" text-anchor="middle" x="625.0" y="91.0">준비</text><rect class="flow-label-bg" height="38" rx="8" ry="8" width="106" x="697.0" y="201.0"></rect><text class="flow-label" text-anchor="middle" x="750.0" y="218.0">상품 구성 선택과 담기</text><text class="flow-label" text-anchor="middle" x="750.0" y="232.0">준비</text><rect class="flow-label-bg" height="38" rx="8" ry="8" width="99" x="320.5" y="242.0"></rect><text class="flow-label" text-anchor="middle" x="370.0" y="259.0">재고·배송·판매 상태</text><text class="flow-label" text-anchor="middle" x="370.0" y="273.0">운영</text><rect class="flow-label-bg" height="24" rx="8" ry="8" width="99" x="705.5" y="74.0"></rect><text class="flow-label" text-anchor="middle" x="755.0" y="91.0">상품 담기 여정 완성</text><rect class="flow-label-bg" height="24" rx="8" ry="8" width="99" x="835.5" y="74.0"></rect><text class="flow-label" text-anchor="middle" x="885.0" y="91.0">상품 담기 여정 완성</text><rect class="flow-label-bg" height="38" rx="8" ry="8" width="106" x="380.3" y="369.0"></rect><text class="flow-label" text-anchor="middle" x="433.3" y="386.0">담기 실패 복구와 상담</text><text class="flow-label" text-anchor="middle" x="433.3" y="400.0">전환</text><rect class="flow-label-bg" height="38" rx="8" ry="8" width="106" x="507.0" y="333.0"></rect><text class="flow-label" text-anchor="middle" x="560.0" y="350.0">담기 실패 복구와 상담</text><text class="flow-label" text-anchor="middle" x="560.0" y="364.0">전환</text><rect class="flow-label-bg" height="38" rx="8" ry="8" width="106" x="697.0" y="201.0"></rect><text class="flow-label" text-anchor="middle" x="750.0" y="218.0">담기 실패 복구와 상담</text><text class="flow-label" text-anchor="middle" x="750.0" y="232.0">전환</text><rect class="flow-label-bg" height="38" rx="8" ry="8" width="99" x="510.5" y="333.0"></rect><text class="flow-label" text-anchor="middle" x="560.0" y="350.0">상품 문맥 기반 상담</text><text class="flow-label" text-anchor="middle" x="560.0" y="364.0">지원</text><rect class="flow-label-bg" height="38" rx="8" ry="8" width="99" x="185.5" y="60.0"></rect><text class="flow-label" text-anchor="middle" x="235.0" y="77.0">담기 불편 모니터링과</text><text class="flow-label" text-anchor="middle" x="235.0" y="91.0">조치 운영</text><rect class="flow-label-bg" height="24" rx="8" ry="8" width="113" x="563.5" y="256.0"></rect><text class="flow-label" text-anchor="middle" x="620.0" y="273.0">상품 라이프사이클 I/F</text><rect class="flow-label-bg" height="38" rx="8" ry="8" width="113" x="118.5" y="355.0"></rect><text class="flow-label" text-anchor="middle" x="175.0" y="372.0">상품 상세 템플릿과 원장</text><text class="flow-label" text-anchor="middle" x="175.0" y="386.0">운영</text><rect class="flow-label-bg" height="38" rx="8" ry="8" width="106" x="317.0" y="510.0"></rect><text class="flow-label" text-anchor="middle" x="370.0" y="527.0">원장·라이프사이클 연동</text><text class="flow-label" text-anchor="middle" x="370.0" y="541.0">검수</text><rect class="flow-label-bg" height="38" rx="8" ry="8" width="99" x="510.5" y="510.0"></rect><text class="flow-label" text-anchor="middle" x="560.0" y="527.0">운영 입력·삭제 보호</text><text class="flow-label" text-anchor="middle" x="560.0" y="541.0">검증</text><rect class="flow-label-bg" height="38" rx="8" ry="8" width="92" x="514.0" y="510.0"></rect><text class="flow-label" text-anchor="middle" x="560.0" y="527.0">상품 상세 템플릿과</text><text class="flow-label" text-anchor="middle" x="560.0" y="541.0">원장 운영</text><rect class="flow-label-bg" height="24" rx="8" ry="8" width="106" x="377.0" y="369.0"></rect><text class="flow-label" text-anchor="middle" x="430.0" y="386.0">상품 기본 정책 I/F</text><text class="note" x="78" y="808">실선은 대표 흐름, 점선은 예외·복구·제한 흐름을 의미합니다.</text></svg>