<svg aria-label="상품 상세/담기 유즈케이스 다이어그램" height="1195" role="img" viewBox="0 0 1120 1195" width="1120" xmlns="http://www.w3.org/2000/svg"><defs><style>.sysbox { fill:#ffffff; stroke:#c6cfdb; stroke-width:1.5; }.actor-line { stroke:#4f5b6a; stroke-width:2; fill:none; }.system-actor-line { stroke:#64748b; stroke-width:2; fill:none; }.actor-text { font:14px Arial, 'Malgun Gothic', sans-serif; fill:#222; font-weight:700; }.title { font:700 15px Arial, 'Malgun Gothic', sans-serif; fill:#222; }.uc { fill:#f7f9fc; stroke:#8fa3bf; stroke-width:1.5; }.uc-text { font:700 13px Arial, 'Malgun Gothic', sans-serif; fill:#1f2937; }.uc-sub { font:11px 'Courier New', 'Malgun Gothic', monospace; fill:#667085; }.conn { stroke:#8a94a6; stroke-width:1.4; fill:none; }.legend { font:12px Arial, 'Malgun Gothic', sans-serif; fill:#5b6472; }</style></defs><rect class="sysbox" height="1113" rx="12" ry="12" width="540" x="290" y="36"></rect><text class="title" text-anchor="middle" x="560" y="61">상품 상세/담기 업무 시스템</text><line class="conn" x1="144" x2="442" y1="172" y2="115"></line><line class="conn" x1="144" x2="442" y1="172" y2="179"></line><line class="conn" x1="144" x2="442" y1="172" y2="243"></line><line class="conn" x1="144" x2="442" y1="172" y2="307"></line><line class="conn" x1="144" x2="442" y1="172" y2="371"></line><line class="conn" x1="144" x2="442" y1="624" y2="435"></line><line class="conn" x1="144" x2="442" y1="624" y2="499"></line><line class="conn" x1="144" x2="442" y1="624" y2="563"></line><line class="conn" x1="144" x2="442" y1="624" y2="627"></line><line class="conn" x1="144" x2="442" y1="624" y2="691"></line><line class="conn" x1="144" x2="442" y1="1077" y2="755"></line><line class="conn" x1="678" x2="976" y1="819" y2="1077"></line><line class="conn" x1="678" x2="976" y1="883" y2="1077"></line><line class="conn" x1="678" x2="976" y1="947" y2="172"></line><line class="conn" x1="678" x2="976" y1="1011" y2="172"></line><line class="conn" x1="678" x2="976" y1="1075" y2="172"></line><ellipse class="uc" cx="560" cy="115" rx="118" ry="31"></ellipse><text class="uc-text" text-anchor="middle" x="560" y="112">상품 가치 탐색과 이해</text><text class="uc-sub" text-anchor="middle" x="560" y="137">US-PDD-CUS-001 · 프로세스 Y</text><ellipse class="uc" cx="560" cy="179" rx="118" ry="31"></ellipse><text class="uc-text" text-anchor="middle" x="560" y="176">상품 조건 비교와 맞춤 판단</text><text class="uc-sub" text-anchor="middle" x="560" y="201">US-PDD-CUS-002 · 프로세스 Y</text><ellipse class="uc" cx="560" cy="243" rx="118" ry="31"></ellipse><text class="uc-text" text-anchor="middle" x="560" y="240">상품 구성 선택과 담기 준비</text><text class="uc-sub" text-anchor="middle" x="560" y="265">US-PDD-CUS-003 · 프로세스 Y</text><ellipse class="uc" cx="560" cy="307" rx="118" ry="31"></ellipse><text class="uc-text" text-anchor="middle" x="560" y="304">상품 담기 여정 완성</text><text class="uc-sub" text-anchor="middle" x="560" y="329">US-PDD-CUS-004 · 프로세스 Y</text><ellipse class="uc" cx="560" cy="371" rx="118" ry="31"></ellipse><text class="uc-text" text-anchor="middle" x="560" y="368">담기 실패 복구와 상담 전환</text><text class="uc-sub" text-anchor="middle" x="560" y="393">US-PDD-CUS-005 · 프로세스 Y</text><ellipse class="uc" cx="560" cy="435" rx="118" ry="31"></ellipse><text class="uc-text" text-anchor="middle" x="560" y="432">상품 상세 템플릿과 원장 운영</text><text class="uc-sub" text-anchor="middle" x="560" y="457">US-PDD-OPS-001 · 프로세스 Y</text><ellipse class="uc" cx="560" cy="499" rx="118" ry="31"></ellipse><text class="uc-text" text-anchor="middle" x="560" y="496">상품 비교·추천 기준 운영</text><text class="uc-sub" text-anchor="middle" x="560" y="521">US-PDD-OPS-002 · 프로세스 Y</text><ellipse class="uc" cx="560" cy="563" rx="118" ry="31"></ellipse><text class="uc-text" text-anchor="middle" x="560" y="560">상품 관계·담기 정책 운영</text><text class="uc-sub" text-anchor="middle" x="560" y="585">US-PDD-OPS-003 · 프로세스 Y</text><ellipse class="uc" cx="560" cy="627" rx="118" ry="31"></ellipse><text class="uc-text" text-anchor="middle" x="560" y="624">재고·배송·판매 상태 운영</text><text class="uc-sub" text-anchor="middle" x="560" y="649">US-PDD-OPS-004 · 프로세스 Y</text><ellipse class="uc" cx="560" cy="691" rx="118" ry="31"></ellipse><text class="uc-text" text-anchor="middle" x="560" y="681">담기 불편 모니터링과 조치</text><text class="uc-text" text-anchor="middle" x="560" y="695">운영</text><text class="uc-sub" text-anchor="middle" x="560" y="713">US-PDD-OPS-005 · 프로세스 Y</text><ellipse class="uc" cx="560" cy="755" rx="118" ry="31"></ellipse><text class="uc-text" text-anchor="middle" x="560" y="752">상품 문맥 기반 상담 지원</text><text class="uc-sub" text-anchor="middle" x="560" y="777">US-PDD-CS-001 · 프로세스 Y</text><ellipse class="uc" cx="560" cy="819" rx="118" ry="31"></ellipse><text class="uc-text" text-anchor="middle" x="560" y="816">상품 기준 정보 제공</text><text class="uc-sub" text-anchor="middle" x="560" y="841">US-PDD-SYS-001 · 프로세스 N</text><ellipse class="uc" cx="560" cy="883" rx="118" ry="31"></ellipse><text class="uc-text" text-anchor="middle" x="560" y="880">고객·회선 조건 판정</text><text class="uc-sub" text-anchor="middle" x="560" y="905">US-PDD-SYS-002 · 프로세스 N</text><ellipse class="uc" cx="560" cy="947" rx="118" ry="31"></ellipse><text class="uc-text" text-anchor="middle" x="560" y="944">AI 요약·추천 생성</text><text class="uc-sub" text-anchor="middle" x="560" y="969">US-PDD-SYS-003 · 프로세스 N</text><ellipse class="uc" cx="560" cy="1011" rx="118" ry="31"></ellipse><text class="uc-text" text-anchor="middle" x="560" y="1008">담기 상태 저장과 전환 제공</text><text class="uc-sub" text-anchor="middle" x="560" y="1033">US-PDD-SYS-004 · 프로세스 N</text><ellipse class="uc" cx="560" cy="1075" rx="118" ry="31"></ellipse><text class="uc-text" text-anchor="middle" x="560" y="1072">담기 알림·이력 제공</text><text class="uc-sub" text-anchor="middle" x="560" y="1097">US-PDD-SYS-005 · 프로세스 N</text><circle class="actor-line" cx="112" cy="120" r="18"></circle><line class="actor-line" x1="112" x2="112" y1="138" y2="185"></line><line class="actor-line" x1="86" x2="138" y1="155" y2="155"></line><line class="actor-line" x1="112" x2="92" y1="185" y2="220"></line><line class="actor-line" x1="112" x2="132" y1="185" y2="220"></line><text class="actor-text" text-anchor="middle" x="112" y="246">고객</text><circle class="actor-line" cx="112" cy="572" r="18"></circle><line class="actor-line" x1="112" x2="112" y1="590" y2="637"></line><line class="actor-line" x1="86" x2="138" y1="607" y2="607"></line><line class="actor-line" x1="112" x2="92" y1="637" y2="672"></line><line class="actor-line" x1="112" x2="132" y1="637" y2="672"></line><text class="actor-text" text-anchor="middle" x="112" y="698">운영자</text><circle class="actor-line" cx="112" cy="1025" r="18"></circle><line class="actor-line" x1="112" x2="112" y1="1043" y2="1090"></line><line class="actor-line" x1="86" x2="138" y1="1060" y2="1060"></line><line class="actor-line" x1="112" x2="92" y1="1090" y2="1125"></line><line class="actor-line" x1="112" x2="132" y1="1090" y2="1125"></line><text class="actor-text" text-anchor="middle" x="112" y="1151">상담사</text><circle class="system-actor-line" cx="1008" cy="120" r="18"></circle><line class="system-actor-line" x1="1008" x2="1008" y1="138" y2="185"></line><line class="system-actor-line" x1="982" x2="1034" y1="155" y2="155"></line><line class="system-actor-line" x1="1008" x2="988" y1="185" y2="220"></line><line class="system-actor-line" x1="1008" x2="1028" y1="185" y2="220"></line><text class="actor-text" text-anchor="middle" x="1008" y="246">채널 업무 시스템</text><circle class="system-actor-line" cx="1008" cy="1025" r="18"></circle><line class="system-actor-line" x1="1008" x2="1008" y1="1043" y2="1090"></line><line class="system-actor-line" x1="982" x2="1034" y1="1060" y2="1060"></line><line class="system-actor-line" x1="1008" x2="988" y1="1090" y2="1125"></line><line class="system-actor-line" x1="1008" x2="1028" y1="1090" y2="1125"></line><text class="actor-text" text-anchor="middle" x="1008" y="1151">상품 연계 시스템</text><text class="legend" x="304" y="1169">※ 화면 이동·버튼 클릭은 제외하고, 액터가 완결하는 업무와 시스템 보조 처리를 연결합니다.</text></svg>